<?xml version="1.0" encoding="UTF-8" standalone="no"?>
<!DOCTYPE svg PUBLIC "-//W3C//DTD SVG 1.1//EN"
 "http://www.w3.org/Graphics/SVG/1.1/DTD/svg11.dtd">
<!-- Generated by graphviz version 2.43.0 (0)
 -->
<!-- Title: src/utility/header/commonTypes.h Pages: 1 -->
<svg width="484pt" height="173pt"
 viewBox="0.00 0.00 483.50 173.00" xmlns="http://www.w3.org/2000/svg" xmlns:xlink="http://www.w3.org/1999/xlink">
<g id="graph0" class="graph" transform="scale(1 1) rotate(0) translate(4 169)">
<title>src/utility/header/commonTypes.h</title>
<polygon fill="white" stroke="transparent" points="-4,4 -4,-169 479.5,-169 479.5,4 -4,4"/>
<!-- Node1 -->
<g id="node1" class="node">
<title>Node1</title>
<g id="a_node1"><a xlink:title="Provides cross&#45;platform type definitions.">
<polygon fill="#bfbfbf" stroke="black" points="253.5,-134.5 253.5,-164.5 352.5,-164.5 352.5,-134.5 253.5,-134.5"/>
<text text-anchor="start" x="261.5" y="-152.5" font-family="Helvetica,sans-Serif" font-size="10.00">src/utility/header</text>
<text text-anchor="middle" x="303" y="-141.5" font-family="Helvetica,sans-Serif" font-size="10.00">/commonTypes.h</text>
</a>
</g>
</g>
<!-- Node2 -->
<g id="node2" class="node">
<title>Node2</title>
<g id="a_node2"><a xlink:href="hospitalsystem_8h.html" target="_top" xlink:title=" ">
<polygon fill="white" stroke="black" points="164,-67.5 164,-97.5 304,-97.5 304,-67.5 164,-67.5"/>
<text text-anchor="start" x="172" y="-85.5" font-family="Helvetica,sans-Serif" font-size="10.00">src/hospitalsystem</text>
<text text-anchor="middle" x="234" y="-74.5" font-family="Helvetica,sans-Serif" font-size="10.00">/header/hospitalsystem.h</text>
</a>
</g>
</g>
<!-- Node1&#45;&gt;Node2 -->
<g id="edge1" class="edge">
<title>Node1&#45;&gt;Node2</title>
<path fill="none" stroke="midnightblue" d="M280.51,-127.31C270.16,-117.56 258.16,-106.26 248.94,-97.58"/>
<polygon fill="midnightblue" stroke="midnightblue" points="278.35,-130.09 288.03,-134.4 283.15,-124.99 278.35,-130.09"/>
</g>
<!-- Node5 -->
<g id="node5" class="node">
<title>Node5</title>
<g id="a_node5"><a xlink:href="mathUtility_8h.html" target="_top" xlink:title="Provides functions for math. utilities.">
<polygon fill="white" stroke="black" points="334.5,-67.5 334.5,-97.5 433.5,-97.5 433.5,-67.5 334.5,-67.5"/>
<text text-anchor="start" x="342.5" y="-85.5" font-family="Helvetica,sans-Serif" font-size="10.00">src/utility/header</text>
<text text-anchor="middle" x="384" y="-74.5" font-family="Helvetica,sans-Serif" font-size="10.00">/mathUtility.h</text>
</a>
</g>
</g>
<!-- Node1&#45;&gt;Node5 -->
<g id="edge4" class="edge">
<title>Node1&#45;&gt;Node5</title>
<path fill="none" stroke="midnightblue" d="M328.69,-127.88C341,-118.01 355.43,-106.43 366.46,-97.58"/>
<polygon fill="midnightblue" stroke="midnightblue" points="326.18,-125.41 320.58,-134.4 330.57,-130.87 326.18,-125.41"/>
</g>
<!-- Node3 -->
<g id="node3" class="node">
<title>Node3</title>
<g id="a_node3"><a xlink:href="hospitalsystemapp_8cpp.html" target="_top" xlink:title=" ">
<polygon fill="white" stroke="black" points="0,-0.5 0,-30.5 150,-30.5 150,-0.5 0,-0.5"/>
<text text-anchor="start" x="8" y="-18.5" font-family="Helvetica,sans-Serif" font-size="10.00">src/hospitalsystemapp</text>
<text text-anchor="middle" x="75" y="-7.5" font-family="Helvetica,sans-Serif" font-size="10.00">/src/hospitalsystemapp.cpp</text>
</a>
</g>
</g>
<!-- Node2&#45;&gt;Node3 -->
<g id="edge2" class="edge">
<title>Node2&#45;&gt;Node3</title>
<path fill="none" stroke="midnightblue" d="M190.08,-63.54C164.63,-53.14 133.07,-40.24 109.43,-30.58"/>
<polygon fill="midnightblue" stroke="midnightblue" points="188.92,-66.85 199.5,-67.4 191.57,-60.37 188.92,-66.85"/>
</g>
<!-- Node4 -->
<g id="node4" class="node">
<title>Node4</title>
<g id="a_node4"><a xlink:href="hospitalsystem_8cpp.html" target="_top" xlink:title=" ">
<polygon fill="white" stroke="black" points="168,-0.5 168,-30.5 300,-30.5 300,-0.5 168,-0.5"/>
<text text-anchor="start" x="176" y="-18.5" font-family="Helvetica,sans-Serif" font-size="10.00">src/hospitalsystem</text>
<text text-anchor="middle" x="234" y="-7.5" font-family="Helvetica,sans-Serif" font-size="10.00">/src/hospitalsystem.cpp</text>
</a>
</g>
</g>
<!-- Node2&#45;&gt;Node4 -->
<g id="edge3" class="edge">
<title>Node2&#45;&gt;Node4</title>
<path fill="none" stroke="midnightblue" d="M234,-57.11C234,-48.15 234,-38.32 234,-30.58"/>
<polygon fill="midnightblue" stroke="midnightblue" points="230.5,-57.4 234,-67.4 237.5,-57.4 230.5,-57.4"/>
</g>
<!-- Node6 -->
<g id="node6" class="node">
<title>Node6</title>
<g id="a_node6"><a xlink:href="mathUtility_8cpp.html" target="_top" xlink:title="Provides functions for math. utilities.">
<polygon fill="white" stroke="black" points="318.5,-6 318.5,-25 475.5,-25 475.5,-6 318.5,-6"/>
<text text-anchor="middle" x="397" y="-13" font-family="Helvetica,sans-Serif" font-size="10.00">src/utility/src/mathUtility.cpp</text>
</a>
</g>
</g>
<!-- Node5&#45;&gt;Node6 -->
<g id="edge5" class="edge">
<title>Node5&#45;&gt;Node6</title>
<path fill="none" stroke="midnightblue" d="M388.85,-57.25C391.1,-46.02 393.62,-33.38 395.26,-25.19"/>
<polygon fill="midnightblue" stroke="midnightblue" points="385.35,-56.9 386.82,-67.4 392.21,-58.28 385.35,-56.9"/>
</g>
</g>
</svg>
