<?xml version="1.0" encoding="UTF-8" standalone="no"?>
<!DOCTYPE svg PUBLIC "-//W3C//DTD SVG 1.1//EN"
 "http://www.w3.org/Graphics/SVG/1.1/DTD/svg11.dtd">
<!-- Generated by graphviz version 2.43.0 (0)
 -->
<!-- Title: src/hospitalsystemapp/src Pages: 1 -->
<svg width="134pt" height="151pt"
 viewBox="0.00 0.00 134.00 151.00" xmlns="http://www.w3.org/2000/svg" xmlns:xlink="http://www.w3.org/1999/xlink">
<g id="graph0" class="graph" transform="scale(1 1) rotate(0) translate(4 147)">
<title>src/hospitalsystemapp/src</title>
<polygon fill="white" stroke="transparent" points="-4,4 -4,-147 130,-147 130,4 -4,4"/>
<g id="clust1" class="cluster">
<title>clusterdir_815b30b814a7f74b214b4143631674f9</title>
<g id="a_clust1"><a xlink:href="dir_815b30b814a7f74b214b4143631674f9.html" target="_top" xlink:title="hospitalsystemapp">
<polygon fill="#ddddee" stroke="black" points="8,-64 8,-135 118,-135 118,-64 8,-64"/>
<text text-anchor="middle" x="63" y="-123" font-family="Helvetica,sans-Serif" font-size="10.00">hospitalsystemapp</text>
</a>
</g>
</g>
<!-- dir_e09b2a39ff4877213a24352ddecd9a7e -->
<g id="node1" class="node">
<title>dir_e09b2a39ff4877213a24352ddecd9a7e</title>
<g id="a_node1"><a xlink:href="dir_e09b2a39ff4877213a24352ddecd9a7e.html" target="_top" xlink:title="src">
<polygon fill="#eeeeff" stroke="black" points="90,-108 36,-108 36,-72 90,-72 90,-108"/>
<text text-anchor="middle" x="63" y="-87.5" font-family="Helvetica,sans-Serif" font-size="10.00">src</text>
</a>
</g>
</g>
<!-- dir_0368600240eecbb6a1a0d69ad94adbb1 -->
<g id="node2" class="node">
<title>dir_0368600240eecbb6a1a0d69ad94adbb1</title>
<g id="a_node2"><a xlink:href="dir_0368600240eecbb6a1a0d69ad94adbb1.html" target="_top" xlink:title="hospitalsystem">
<polygon fill="white" stroke="red" points="109,-36 17,-36 17,0 109,0 109,-36"/>
<text text-anchor="middle" x="63" y="-15.5" font-family="Helvetica,sans-Serif" font-size="10.00">hospitalsystem</text>
</a>
</g>
</g>
<!-- dir_e09b2a39ff4877213a24352ddecd9a7e&#45;&gt;dir_0368600240eecbb6a1a0d69ad94adbb1 -->
<g id="edge1" class="edge">
<title>dir_e09b2a39ff4877213a24352ddecd9a7e&#45;&gt;dir_0368600240eecbb6a1a0d69ad94adbb1</title>
<path fill="none" stroke="black" d="M63,-71.7C63,-63.98 63,-54.71 63,-46.11"/>
<polygon fill="black" stroke="black" points="66.5,-46.1 63,-36.1 59.5,-46.1 66.5,-46.1"/>
<g id="a_edge1&#45;headlabel"><a xlink:href="dir_000006_000001.html" target="_top" xlink:title="1">
<text text-anchor="middle" x="69.34" y="-47.2" font-family="Helvetica,sans-Serif" font-size="10.00">1</text>
</a>
</g>
</g>
</g>
</svg>
