<?xml version="1.0" encoding="UTF-8" standalone="no"?>
<!DOCTYPE svg PUBLIC "-//W3C//DTD SVG 1.1//EN"
 "http://www.w3.org/Graphics/SVG/1.1/DTD/svg11.dtd">
<!-- Generated by graphviz version 2.43.0 (0)
 -->
<!-- Title: src Pages: 1 -->
<svg width="222pt" height="220pt"
 viewBox="0.00 0.00 222.00 220.00" xmlns="http://www.w3.org/2000/svg" xmlns:xlink="http://www.w3.org/1999/xlink">
<g id="graph0" class="graph" transform="scale(1 1) rotate(0) translate(4 216)">
<title>src</title>
<polygon fill="white" stroke="transparent" points="-4,4 -4,-216 218,-216 218,4 -4,4"/>
<g id="clust1" class="cluster">
<title>clusterdir_68267d1309a1af8e8297ef4c3efbcdba</title>
<g id="a_clust1"><a xlink:href="dir_68267d1309a1af8e8297ef4c3efbcdba.html">
<polygon fill="#eeeeff" stroke="black" points="8,-8 8,-204 206,-204 206,-8 8,-8"/>
</a>
</g>
</g>
<!-- dir_68267d1309a1af8e8297ef4c3efbcdba -->
<g id="node1" class="node">
<title>dir_68267d1309a1af8e8297ef4c3efbcdba</title>
<text text-anchor="middle" x="171" y="-175.5" font-family="Helvetica,sans-Serif" font-size="10.00">src</text>
</g>
<!-- dir_0368600240eecbb6a1a0d69ad94adbb1 -->
<g id="node2" class="node">
<title>dir_0368600240eecbb6a1a0d69ad94adbb1</title>
<g id="a_node2"><a xlink:href="dir_0368600240eecbb6a1a0d69ad94adbb1.html" xlink:title="hospitalsystem">
<polygon fill="white" stroke="red" points="117,-124 25,-124 25,-88 117,-88 117,-124"/>
<text text-anchor="middle" x="71" y="-103.5" font-family="Helvetica,sans-Serif" font-size="10.00">hospitalsystem</text>
</a>
</g>
</g>
<!-- dir_0619a8f54b4fad7043a6de45be8fde0b -->
<g id="node4" class="node">
<title>dir_0619a8f54b4fad7043a6de45be8fde0b</title>
<g id="a_node4"><a xlink:href="dir_0619a8f54b4fad7043a6de45be8fde0b.html" xlink:title="utility">
<polygon fill="white" stroke="red" points="98,-52 44,-52 44,-16 98,-16 98,-52"/>
<text text-anchor="middle" x="71" y="-31.5" font-family="Helvetica,sans-Serif" font-size="10.00">utility</text>
</a>
</g>
</g>
<!-- dir_0368600240eecbb6a1a0d69ad94adbb1&#45;&gt;dir_0619a8f54b4fad7043a6de45be8fde0b -->
<g id="edge1" class="edge">
<title>dir_0368600240eecbb6a1a0d69ad94adbb1&#45;&gt;dir_0619a8f54b4fad7043a6de45be8fde0b</title>
<path fill="none" stroke="black" d="M71,-87.7C71,-79.98 71,-70.71 71,-62.11"/>
<polygon fill="black" stroke="black" points="74.5,-62.1 71,-52.1 67.5,-62.1 74.5,-62.1"/>
<g id="a_edge1&#45;headlabel"><a xlink:href="dir_000001_000007.html" xlink:title="1">
<text text-anchor="middle" x="77.34" y="-63.2" font-family="Helvetica,sans-Serif" font-size="10.00">1</text>
</a>
</g>
</g>
<!-- dir_815b30b814a7f74b214b4143631674f9 -->
<g id="node3" class="node">
<title>dir_815b30b814a7f74b214b4143631674f9</title>
<g id="a_node3"><a xlink:href="dir_815b30b814a7f74b214b4143631674f9.html" xlink:title="hospitalsystemapp">
<polygon fill="white" stroke="red" points="126,-196 16,-196 16,-160 126,-160 126,-196"/>
<text text-anchor="middle" x="71" y="-175.5" font-family="Helvetica,sans-Serif" font-size="10.00">hospitalsystemapp</text>
</a>
</g>
</g>
<!-- dir_815b30b814a7f74b214b4143631674f9&#45;&gt;dir_0368600240eecbb6a1a0d69ad94adbb1 -->
<g id="edge2" class="edge">
<title>dir_815b30b814a7f74b214b4143631674f9&#45;&gt;dir_0368600240eecbb6a1a0d69ad94adbb1</title>
<path fill="none" stroke="black" d="M71,-159.7C71,-151.98 71,-142.71 71,-134.11"/>
<polygon fill="black" stroke="black" points="74.5,-134.1 71,-124.1 67.5,-134.1 74.5,-134.1"/>
<g id="a_edge2&#45;headlabel"><a xlink:href="dir_000004_000001.html" xlink:title="1">
<text text-anchor="middle" x="77.34" y="-135.2" font-family="Helvetica,sans-Serif" font-size="10.00">1</text>
</a>
</g>
</g>
</g>
</svg>
