<?xml version="1.0" encoding="UTF-8" standalone="no"?>
<!DOCTYPE svg PUBLIC "-//W3C//DTD SVG 1.1//EN"
 "http://www.w3.org/Graphics/SVG/1.1/DTD/svg11.dtd">
<!-- Generated by graphviz version 2.43.0 (0)
 -->
<!-- Title: src/hospitalsystemapp Pages: 1 -->
<svg width="310pt" height="175pt"
 viewBox="0.00 0.00 310.00 175.00" xmlns="http://www.w3.org/2000/svg" xmlns:xlink="http://www.w3.org/1999/xlink">
<g id="graph0" class="graph" transform="scale(1 1) rotate(0) translate(4 171)">
<title>src/hospitalsystemapp</title>
<polygon fill="white" stroke="transparent" points="-4,4 -4,-171 306,-171 306,4 -4,4"/>
<g id="clust1" class="cluster">
<title>clusterdir_68267d1309a1af8e8297ef4c3efbcdba</title>
<g id="a_clust1"><a xlink:href="dir_68267d1309a1af8e8297ef4c3efbcdba.html" xlink:title="src">
<polygon fill="#ddddee" stroke="black" points="8,-8 8,-159 294,-159 294,-8 8,-8"/>
<text text-anchor="middle" x="151" y="-147" font-family="Helvetica,sans-Serif" font-size="10.00">src</text>
</a>
</g>
</g>
<g id="clust2" class="cluster">
<title>clusterdir_815b30b814a7f74b214b4143631674f9</title>
<g id="a_clust2"><a xlink:href="dir_815b30b814a7f74b214b4143631674f9.html">
<polygon fill="#eeeeff" stroke="black" points="16,-80 16,-132 286,-132 286,-80 16,-80"/>
</a>
</g>
</g>
<!-- dir_0368600240eecbb6a1a0d69ad94adbb1 -->
<g id="node1" class="node">
<title>dir_0368600240eecbb6a1a0d69ad94adbb1</title>
<g id="a_node1"><a xlink:href="dir_0368600240eecbb6a1a0d69ad94adbb1.html" xlink:title="hospitalsystem">
<polygon fill="white" stroke="red" points="108,-52 16,-52 16,-16 108,-16 108,-52"/>
<text text-anchor="middle" x="62" y="-31.5" font-family="Helvetica,sans-Serif" font-size="10.00">hospitalsystem</text>
</a>
</g>
</g>
<!-- dir_815b30b814a7f74b214b4143631674f9 -->
<g id="node2" class="node">
<title>dir_815b30b814a7f74b214b4143631674f9</title>
<text text-anchor="middle" x="223" y="-103.5" font-family="Helvetica,sans-Serif" font-size="10.00">hospitalsystemapp</text>
</g>
<!-- dir_1167f3c32ab294507d7b3dfded893836 -->
<g id="node3" class="node">
<title>dir_1167f3c32ab294507d7b3dfded893836</title>
<g id="a_node3"><a xlink:href="dir_1167f3c32ab294507d7b3dfded893836.html" xlink:title="header">
<polygon fill="white" stroke="black" points="150,-124 96,-124 96,-88 150,-88 150,-124"/>
<text text-anchor="middle" x="123" y="-103.5" font-family="Helvetica,sans-Serif" font-size="10.00">header</text>
</a>
</g>
</g>
<!-- dir_e09b2a39ff4877213a24352ddecd9a7e -->
<g id="node4" class="node">
<title>dir_e09b2a39ff4877213a24352ddecd9a7e</title>
<g id="a_node4"><a xlink:href="dir_e09b2a39ff4877213a24352ddecd9a7e.html" xlink:title="src">
<polygon fill="white" stroke="black" points="78,-124 24,-124 24,-88 78,-88 78,-124"/>
<text text-anchor="middle" x="51" y="-103.5" font-family="Helvetica,sans-Serif" font-size="10.00">src</text>
</a>
</g>
</g>
<!-- dir_e09b2a39ff4877213a24352ddecd9a7e&#45;&gt;dir_0368600240eecbb6a1a0d69ad94adbb1 -->
<g id="edge1" class="edge">
<title>dir_e09b2a39ff4877213a24352ddecd9a7e&#45;&gt;dir_0368600240eecbb6a1a0d69ad94adbb1</title>
<path fill="none" stroke="black" d="M53.72,-87.7C54.93,-79.98 56.39,-70.71 57.74,-62.11"/>
<polygon fill="black" stroke="black" points="61.22,-62.53 59.31,-52.1 54.3,-61.44 61.22,-62.53"/>
<g id="a_edge1&#45;headlabel"><a xlink:href="dir_000006_000001.html" xlink:title="1">
<text text-anchor="middle" x="63.46" y="-64.02" font-family="Helvetica,sans-Serif" font-size="10.00">1</text>
</a>
</g>
</g>
</g>
</svg>
