<?xml version="1.0" encoding="UTF-8" standalone="no"?>
<!DOCTYPE svg PUBLIC "-//W3C//DTD SVG 1.1//EN"
 "http://www.w3.org/Graphics/SVG/1.1/DTD/svg11.dtd">
<!-- Generated by graphviz version 2.43.0 (0)
 -->
<!-- Title: src/hospitalsystemapp/src/hospitalsystemapp.cpp Pages: 1 -->
<svg width="288pt" height="229pt"
 viewBox="0.00 0.00 288.00 229.00" xmlns="http://www.w3.org/2000/svg" xmlns:xlink="http://www.w3.org/1999/xlink">
<g id="graph0" class="graph" transform="scale(1 1) rotate(0) translate(4 225)">
<title>src/hospitalsystemapp/src/hospitalsystemapp.cpp</title>
<polygon fill="white" stroke="transparent" points="-4,4 -4,-225 284,-225 284,4 -4,4"/>
<!-- Node1 -->
<g id="node1" class="node">
<title>Node1</title>
<g id="a_node1"><a xlink:title=" ">
<polygon fill="#bfbfbf" stroke="black" points="25,-190.5 25,-220.5 175,-220.5 175,-190.5 25,-190.5"/>
<text text-anchor="start" x="33" y="-208.5" font-family="Helvetica,sans-Serif" font-size="10.00">src/hospitalsystemapp</text>
<text text-anchor="middle" x="100" y="-197.5" font-family="Helvetica,sans-Serif" font-size="10.00">/src/hospitalsystemapp.cpp</text>
</a>
</g>
</g>
<!-- Node2 -->
<g id="node2" class="node">
<title>Node2</title>
<g id="a_node2"><a xlink:title=" ">
<polygon fill="white" stroke="#bfbfbf" points="0,-129 0,-148 60,-148 60,-129 0,-129"/>
<text text-anchor="middle" x="30" y="-136" font-family="Helvetica,sans-Serif" font-size="10.00">iostream</text>
</a>
</g>
</g>
<!-- Node1&#45;&gt;Node2 -->
<g id="edge1" class="edge">
<title>Node1&#45;&gt;Node2</title>
<path fill="none" stroke="midnightblue" d="M84.81,-190.4C73.68,-180.06 58.56,-166.02 47.03,-155.31"/>
<polygon fill="midnightblue" stroke="midnightblue" points="49.07,-152.43 39.36,-148.19 44.31,-157.56 49.07,-152.43"/>
</g>
<!-- Node3 -->
<g id="node3" class="node">
<title>Node3</title>
<g id="a_node3"><a xlink:title=" ">
<polygon fill="white" stroke="#bfbfbf" points="78,-129 78,-148 122,-148 122,-129 78,-129"/>
<text text-anchor="middle" x="100" y="-136" font-family="Helvetica,sans-Serif" font-size="10.00">string</text>
</a>
</g>
</g>
<!-- Node1&#45;&gt;Node3 -->
<g id="edge2" class="edge">
<title>Node1&#45;&gt;Node3</title>
<path fill="none" stroke="midnightblue" d="M100,-190.4C100,-181.06 100,-168.71 100,-158.52"/>
<polygon fill="midnightblue" stroke="midnightblue" points="103.5,-158.19 100,-148.19 96.5,-158.19 103.5,-158.19"/>
</g>
<!-- Node4 -->
<g id="node4" class="node">
<title>Node4</title>
<g id="a_node4"><a xlink:href="$hospitalsystem_8h.html" xlink:title=" ">
<polygon fill="white" stroke="black" points="140,-123.5 140,-153.5 280,-153.5 280,-123.5 140,-123.5"/>
<text text-anchor="start" x="148" y="-141.5" font-family="Helvetica,sans-Serif" font-size="10.00">../../hospitalsystem</text>
<text text-anchor="middle" x="210" y="-130.5" font-family="Helvetica,sans-Serif" font-size="10.00">/header/hospitalsystem.h</text>
</a>
</g>
</g>
<!-- Node1&#45;&gt;Node4 -->
<g id="edge3" class="edge">
<title>Node1&#45;&gt;Node4</title>
<path fill="none" stroke="midnightblue" d="M123.87,-190.4C139.58,-181.11 160.35,-168.84 177.55,-158.67"/>
<polygon fill="midnightblue" stroke="midnightblue" points="179.35,-161.68 186.18,-153.58 175.79,-155.65 179.35,-161.68"/>
</g>
<!-- Node5 -->
<g id="node5" class="node">
<title>Node5</title>
<g id="a_node5"><a xlink:href="$commonTypes_8h.html" xlink:title="Provides cross&#45;platform type definitions.">
<polygon fill="white" stroke="black" points="160,-56.5 160,-86.5 260,-86.5 260,-56.5 160,-56.5"/>
<text text-anchor="start" x="168" y="-74.5" font-family="Helvetica,sans-Serif" font-size="10.00">../../utility/header</text>
<text text-anchor="middle" x="210" y="-63.5" font-family="Helvetica,sans-Serif" font-size="10.00">/commonTypes.h</text>
</a>
</g>
</g>
<!-- Node4&#45;&gt;Node5 -->
<g id="edge4" class="edge">
<title>Node4&#45;&gt;Node5</title>
<path fill="none" stroke="midnightblue" d="M210,-123.4C210,-115.64 210,-105.81 210,-96.86"/>
<polygon fill="midnightblue" stroke="midnightblue" points="213.5,-96.58 210,-86.58 206.5,-96.58 213.5,-96.58"/>
</g>
<!-- Node6 -->
<g id="node6" class="node">
<title>Node6</title>
<g id="a_node6"><a xlink:title=" ">
<polygon fill="white" stroke="#bfbfbf" points="177.5,-0.5 177.5,-19.5 242.5,-19.5 242.5,-0.5 177.5,-0.5"/>
<text text-anchor="middle" x="210" y="-7.5" font-family="Helvetica,sans-Serif" font-size="10.00">stdexcept</text>
</a>
</g>
</g>
<!-- Node5&#45;&gt;Node6 -->
<g id="edge5" class="edge">
<title>Node5&#45;&gt;Node6</title>
<path fill="none" stroke="midnightblue" d="M210,-56.4C210,-48.47 210,-38.46 210,-29.86"/>
<polygon fill="midnightblue" stroke="midnightblue" points="213.5,-29.66 210,-19.66 206.5,-29.66 213.5,-29.66"/>
</g>
</g>
</svg>
